<svg width="1024" height="1024" viewBox="0 0 1024 1024" fill="none" xmlns="http://www.w3.org/2000/svg">
<rect width="1024" height="1024" rx="177" fill="white"/>
<path d="M209 346.862C209 291.634 253.772 246.862 309 246.862H332.939C360.553 246.862 382.939 269.248 382.939 296.862V776.658C382.939 804.272 360.553 826.658 332.939 826.658H259C231.386 826.658 209 804.272 209 776.658V346.862Z" fill="#867BCF"/>
<rect x="425.844" y="556.473" width="173.939" height="245.833" rx="50" fill="#B3B6C0"/>
<path d="M425.844 272.511C425.844 244.897 448.23 222.511 475.844 222.511H499.782C555.011 222.511 599.782 267.283 599.782 322.511V458.93C599.782 486.544 577.397 508.93 549.782 508.93H475.844C448.23 508.93 425.844 486.544 425.844 458.93V272.511Z" fill="#867BCF"/>
<path d="M641.527 247C641.527 219.386 663.913 197 691.527 197H765.466C793.08 197 815.466 219.386 815.466 247V676.795C815.466 732.024 770.694 776.795 715.466 776.795H691.527C663.913 776.795 641.527 754.409 641.527 726.795V247Z" fill="#D9D9D9"/>
</svg>
